<?xml version="1.0" encoding="UTF-8" standalone="no"?>
<svg width="40px" height="37px" viewBox="0 0 40 37" version="1.1" xmlns="http://www.w3.org/2000/svg" xmlns:xlink="http://www.w3.org/1999/xlink" xmlns:sketch="http://www.bohemiancoding.com/sketch/ns">
    <!-- Generator: Sketch 3.2.2 (9983) - http://www.bohemiancoding.com/sketch -->
    <title>Fill 59</title>
    <desc>Created with Sketch.</desc>
    <defs></defs>
    <g id="Page-1" stroke="none" stroke-width="1" fill="none" fill-rule="evenodd" sketch:type="MSPage">
        <g id="INN-Homepage" sketch:type="MSArtboardGroup" transform="translate(-1099.000000, -1325.000000)" fill="#AAAAAA">
            <path d="M1107.17967,1361.93926 L1105.04137,1361.93926 L1106.30024,1360.28738 C1107.25177,1359.03575 1107.87589,1357.44379 1108.19504,1355.43348 C1102.2565,1352.89404 1099,1348.03901 1099,1341.67796 C1099,1331.97017 1106.66194,1325.93926 1119,1325.93926 C1131.3357,1325.93926 1139,1331.97017 1139,1341.67796 C1139,1351.53273 1131.52364,1357.41665 1119,1357.41665 C1118.72104,1357.41665 1118.44563,1357.40987 1118.17139,1357.39969 C1116.29314,1359.56489 1112.92317,1361.93926 1107.17967,1361.93926 M1119,1328.01966 C1107.83924,1328.01966 1101.17494,1333.12456 1101.17494,1341.67796 C1101.17494,1349.01477 1105.85579,1352.32758 1109.78251,1353.81439 L1110.55437,1354.10723 L1110.46217,1354.89755 C1110.24468,1356.77218 1109.80969,1358.37544 1109.14066,1359.7458 C1113.15603,1359.26753 1115.49645,1357.3522 1116.79551,1355.71162 L1117.1383,1355.27858 L1117.86761,1355.30685 C1118.24232,1355.32155 1118.6182,1355.33625 1119,1355.33625 C1135.08747,1355.33625 1136.82506,1345.78449 1136.82506,1341.67796 C1136.82506,1333.12456 1130.16076,1328.01966 1119,1328.01966" id="Fill-59" sketch:type="MSShapeGroup"></path>
        </g>
    </g>
</svg>