<?xml version="1.0" encoding="utf-8"?>
<!-- Generator: Adobe Illustrator 22.0.1, SVG Export Plug-In . SVG Version: 6.00 Build 0)  -->
<svg version="1.1" id="Layer_1" xmlns:sketch="http://www.bohemiancoding.com/sketch/ns"
	 xmlns="http://www.w3.org/2000/svg" xmlns:xlink="http://www.w3.org/1999/xlink" x="0px" y="0px" viewBox="0 0 60 47"
	 style="enable-background:new 0 0 60 47;" xml:space="preserve">
<style type="text/css">
	.st0{fill:#FF8B4D;}
</style>
<title>Image</title>
<desc>Created with Sketch.</desc>
<g id="Page-1" sketch:type="MSPage">
	<g id="INN-Homepage-3" transform="translate(-1141.000000, -3217.000000)" sketch:type="MSArtboardGroup">
		<g id="Consulting" transform="translate(-51.000000, 3018.000000)" sketch:type="MSLayerGroup">
			<g id="Image" transform="translate(1192.000000, 199.000000)" sketch:type="MSShapeGroup">
				<path id="Fill-12" class="st0" d="M54.7,46.7H5.4c-2.9,0-5.3-2.4-5.3-5.4V5.7c0-3,2.4-5.4,5.3-5.4h49.3c2.9,0,5.3,2.4,5.3,5.4
					v35.7C60,44.3,57.6,46.7,54.7,46.7 M5.4,3.9c-1,0-1.8,0.8-1.8,1.8v35.7c0,1,0.8,1.8,1.8,1.8h49.3c1,0,1.8-0.8,1.8-1.8V5.7
					c0-1-0.8-1.8-1.8-1.8L5.4,3.9"/>
				<path id="Fill-13" class="st0" d="M38.8,21.6c-3.8,0-6.9-3.1-6.9-7s3.1-7,6.9-7s6.9,3.1,6.9,7S42.6,21.6,38.8,21.6 M38.8,10.9
					c-2,0-3.6,1.7-3.6,3.7s1.6,3.7,3.6,3.7s3.6-1.7,3.6-3.7C42.5,12.6,40.8,10.9,38.8,10.9"/>
				<path id="Fill-14" class="st0" d="M48.3,46.1L19.5,18.7L3,34.2l-2.2-2.4l18.7-17.6l31,29.6L48.3,46.1"/>
				<path id="Fill-15" class="st0" d="M57.2,37.1l-9.5-7.9l-8.1,6.6l-2.1-2.6L47.6,25l11.6,9.6L57.2,37.1"/>
			</g>
		</g>
	</g>
</g>
</svg>
