<?xml version="1.0" encoding="UTF-8" standalone="no"?>
<svg width="60px" height="47px" viewBox="0 0 60 47" version="1.1" xmlns="http://www.w3.org/2000/svg" xmlns:xlink="http://www.w3.org/1999/xlink" xmlns:sketch="http://www.bohemiancoding.com/sketch/ns">
    <!-- Generator: Sketch 3.2.2 (9983) - http://www.bohemiancoding.com/sketch -->
    <title>Image</title>
    <desc>Created with Sketch.</desc>
    <defs></defs>
    <g id="Page-1" stroke="none" stroke-width="1" fill="none" fill-rule="evenodd" sketch:type="MSPage">
        <g id="INN-Homepage-3" sketch:type="MSArtboardGroup" transform="translate(-1141.000000, -3217.000000)" fill="#FF9657">
            <g id="Consulting" sketch:type="MSLayerGroup" transform="translate(-51.000000, 3018.000000)">
                <g id="Image" transform="translate(1192.000000, 199.000000)" sketch:type="MSShapeGroup">
                    <path d="M54.6770833,46.7159136 L5.38541667,46.7159136 C2.4736875,46.7159136 0.104166667,44.3150668 0.104166667,41.3648434 L0.104166667,5.69104241 C0.104166667,2.74081906 2.4736875,0.339972255 5.38541667,0.339972255 L54.6770833,0.339972255 C57.5888125,0.339972255 59.9583333,2.74081906 59.9583333,5.69104241 L59.9583333,41.3648434 C59.9583333,44.3150668 57.5888125,46.7159136 54.6770833,46.7159136 M5.38541667,3.90735236 C4.41366667,3.90735236 3.625,4.70822919 3.625,5.69104241 L3.625,41.3648434 C3.625,42.3476567 4.41366667,43.1485335 5.38541667,43.1485335 L54.6770833,43.1485335 C55.6488333,43.1485335 56.4375,42.3476567 56.4375,41.3648434 L56.4375,5.69104241 C56.4375,4.70822919 55.6488333,3.90735236 54.6770833,3.90735236 L5.38541667,3.90735236" id="Fill-12"></path>
                    <path d="M38.8333333,21.6193946 C35.0185104,21.6193946 31.9148958,18.474749 31.9148958,14.6094927 C31.9148958,10.7442363 35.0185104,7.59959076 38.8333333,7.59959076 C42.6481562,7.59959076 45.7517708,10.7442363 45.7517708,14.6094927 C45.7517708,18.474749 42.6481562,21.6193946 38.8333333,21.6193946 M38.8333333,10.9172543 C36.8229375,10.9172543 35.1892708,12.5725186 35.1892708,14.6094927 C35.1892708,16.644683 36.8229375,18.3017311 38.8333333,18.3017311 C40.8437292,18.3017311 42.4773958,16.644683 42.4773958,14.6094927 C42.4773958,12.5725186 40.8437292,10.9172543 38.8333333,10.9172543" id="Fill-13"></path>
                    <path d="M48.2726875,46.1397817 L19.4617083,18.6638202 L2.97892708,34.1712215 L0.750239583,31.7400519 L19.4757917,14.1225453 L50.5189792,43.7246654 L48.2726875,46.1397817" id="Fill-14"></path>
                    <path d="M57.1698333,37.0839873 L47.6354167,29.2339674 L39.5744687,35.8675107 L37.5077396,33.2954296 L47.6354167,24.9584623 L59.2365625,34.5101226 L57.1698333,37.0839873" id="Fill-15"></path>
                </g>
            </g>
        </g>
    </g>
</svg>