<?xml version="1.0" encoding="UTF-8" standalone="no"?>
<svg width="40px" height="33px" viewBox="0 0 40 33" version="1.1" xmlns="http://www.w3.org/2000/svg" xmlns:xlink="http://www.w3.org/1999/xlink" xmlns:sketch="http://www.bohemiancoding.com/sketch/ns">
    <!-- Generator: Sketch 3.2.2 (9983) - http://www.bohemiancoding.com/sketch -->
    <title>Box</title>
    <desc>Created with Sketch.</desc>
    <defs></defs>
    <g id="Page-1" stroke="none" stroke-width="1" fill="none" fill-rule="evenodd" sketch:type="MSPage">
        <g id="INN-Homepage" sketch:type="MSArtboardGroup" transform="translate(-686.000000, -1330.000000)" fill="#AAAAAA">
            <g id="Box" sketch:type="MSLayerGroup" transform="translate(686.000000, 1330.000000)">
                <path d="M39.4736842,9.5941434 L37.1573465,9.5941434 L37.1573465,3.82922824 C37.1573465,3.19393459 36.6384868,2.67624521 35.9991776,2.67624521 L3.57044956,2.67624521 C2.93114035,2.67624521 2.4122807,3.19393459 2.4122807,3.82922824 L2.4122807,9.5941434 L0.0959429825,9.5941434 L0.0959429825,3.82922824 C0.0959429825,1.92219431 1.65483827,0.370279146 3.57044956,0.370279146 L35.9991776,0.370279146 C37.9147889,0.370279146 39.4736842,1.92219431 39.4736842,3.82922824 L39.4736842,9.5941434" id="Fill-192" sketch:type="MSShapeGroup"></path>
                <path d="M33.6828399,32.6538041 L5.88678728,32.6538041 C3.97117599,32.6538041 2.4122807,31.1018889 2.4122807,29.194855 L2.4122807,9.5941434 L4.72861842,9.5941434 L4.72861842,29.194855 C4.72861842,29.8301486 5.24747807,30.347838 5.88678728,30.347838 L33.6828399,30.347838 C34.3221491,30.347838 34.8410088,29.8301486 34.8410088,29.194855 L34.8410088,9.5941434 L37.1573465,9.5941434 L37.1573465,29.194855 C37.1573465,31.1018889 35.5984512,32.6538041 33.6828399,32.6538041" id="Fill-193" sketch:type="MSShapeGroup"></path>
                <path d="M24.417489,16.5120416 L15.1521382,16.5120416 C14.5116708,16.5120416 13.9939693,15.9955052 13.9939693,15.3590586 C13.9939693,14.7226119 14.5116708,14.2060755 15.1521382,14.2060755 L24.417489,14.2060755 C25.0579564,14.2060755 25.5756579,14.7226119 25.5756579,15.3590586 C25.5756579,15.9955052 25.0579564,16.5120416 24.417489,16.5120416" id="Fill-194" sketch:type="MSShapeGroup"></path>
                <path d="M0.0959429825,7.28817734 L39.4736842,7.28817734 L39.4736842,9.5941434 L0.0959429825,9.5941434 L0.0959429825,7.28817734 Z" id="Fill-195" sketch:type="MSShapeGroup"></path>
            </g>
        </g>
    </g>
</svg>