<?xml version="1.0" encoding="UTF-8" standalone="no"?>
<svg width="48px" height="48px" viewBox="0 0 48 48" version="1.1" xmlns="http://www.w3.org/2000/svg" xmlns:xlink="http://www.w3.org/1999/xlink" xmlns:sketch="http://www.bohemiancoding.com/sketch/ns">
    <!-- Generator: Sketch 3.3.2 (12043) - http://www.bohemiancoding.com/sketch -->
    <title>Imported Layers 5</title>
    <desc>Created with Sketch.</desc>
    <defs></defs>
    <g id="Page-1" stroke="none" stroke-width="1" fill="none" fill-rule="evenodd" sketch:type="MSPage">
        <path d="M44.6337662,35.4701299 C46.6285714,31.9792208 47.7506494,27.9896104 47.7506494,23.7506494 C47.7506494,19.5116883 46.6285714,15.4597403 44.6337662,12.0311688 C44.5714286,11.9064935 44.5090909,11.8441558 44.4467532,11.7818182 C40.3324675,4.73766234 32.6649351,0 23.8753247,0 C15.1480519,0 7.48051948,4.73766234 3.3038961,11.7818182 C3.24155844,11.8441558 3.17922078,11.9688312 3.11688312,12.0311688 C1.12207792,15.4597403 0,19.4493506 0,23.7506494 C0,36.9038961 10.6597403,47.5636364 23.812987,47.5636364 C32.5402597,47.5636364 40.2077922,42.825974 44.3844156,35.7818182 C44.5090909,35.6571429 44.5714286,35.5948052 44.6337662,35.4701299 L44.6337662,35.4701299 Z M2.43116883,24.8727273 L10.4727273,24.8727273 C10.5974026,27.9896104 11.2207792,31.0441558 12.2181818,33.9116883 L4.92467532,33.9116883 C3.49090909,31.1688312 2.61818182,28.1142857 2.43116883,24.8727273 L2.43116883,24.8727273 Z M4.92467532,13.5896104 L12.2181818,13.5896104 C11.1584416,16.4571429 10.5974026,19.4493506 10.4727273,22.5662338 L2.43116883,22.5662338 C2.61818182,19.3246753 3.49090909,16.2701299 4.92467532,13.5896104 L4.92467532,13.5896104 Z M45.3818182,22.5662338 L37.4649351,22.5662338 C37.3402597,19.4493506 36.7168831,16.4571429 35.7194805,13.5896104 L42.8883117,13.5896104 C44.3220779,16.2701299 45.1948052,19.3246753 45.3818182,22.5662338 L45.3818182,22.5662338 Z M35.1584416,22.5662338 L25.0597403,22.5662338 L25.0597403,13.5896104 L33.225974,13.5896104 C34.3480519,16.3948052 35.0337662,19.387013 35.1584416,22.5662338 L35.1584416,22.5662338 Z M25.0597403,11.2831169 L25.0597403,2.55584416 C28.0519481,4.98701299 30.4831169,7.91688312 32.1662338,11.2207792 L25.0597403,11.2207792 L25.0597403,11.2831169 L25.0597403,11.2831169 Z M22.7532468,2.68051948 L22.7532468,11.2207792 L15.7714286,11.2207792 C17.4545455,7.97922078 19.8233766,5.11168831 22.7532468,2.68051948 L22.7532468,2.68051948 Z M22.7532468,13.5896104 L22.7532468,22.5662338 L12.7792208,22.5662338 C12.9038961,19.4493506 13.5896104,16.3948052 14.7116883,13.5896104 L22.7532468,13.5896104 L22.7532468,13.5896104 Z M12.7792208,24.8727273 L22.7532468,24.8727273 L22.7532468,33.9116883 L14.7116883,33.9116883 C13.5896104,31.0441558 12.9038961,27.9896104 12.7792208,24.8727273 L12.7792208,24.8727273 Z M22.7532468,36.2181818 L22.7532468,44.7584416 C19.8233766,42.3896104 17.4545455,39.4597403 15.7714286,36.2181818 L22.7532468,36.2181818 L22.7532468,36.2181818 Z M25.0597403,44.8831169 L25.0597403,36.2181818 L32.1662338,36.2181818 C30.4207792,39.5220779 28.0519481,42.4519481 25.0597403,44.8831169 L25.0597403,44.8831169 Z M25.0597403,33.9116883 L25.0597403,24.8727273 L35.1584416,24.8727273 C35.0337662,28.0519481 34.3480519,31.1064935 33.225974,33.9116883 L25.0597403,33.9116883 L25.0597403,33.9116883 Z M37.4649351,24.8727273 L45.3818182,24.8727273 C45.1948052,28.1142857 44.3220779,31.2311688 42.825974,33.9116883 L35.7194805,33.9116883 C36.7168831,31.0441558 37.3402597,27.9896104 37.4649351,24.8727273 L37.4649351,24.8727273 Z M41.4545455,11.2831169 L34.7220779,11.2831169 C33.2883117,8.16623377 31.2311688,5.23636364 28.7376623,2.80519481 C33.9116883,3.98961039 38.4,7.04415584 41.4545455,11.2831169 L41.4545455,11.2831169 Z M19.2623377,2.74285714 C16.7064935,5.23636364 14.7116883,8.1038961 13.2155844,11.2831169 L6.35844156,11.2831169 C9.41298701,6.98181818 13.9636364,3.86493506 19.2623377,2.74285714 L19.2623377,2.74285714 Z M6.35844156,36.2181818 L13.1532468,36.2181818 C14.6493506,39.3974026 16.6441558,42.2649351 19.2,44.7584416 C13.9636364,43.574026 9.41298701,40.4571429 6.35844156,36.2181818 L6.35844156,36.2181818 Z M28.7376623,44.6961039 C31.2311688,42.2025974 33.2883117,39.3350649 34.7220779,36.2181818 L41.3922078,36.2181818 C38.4,40.3948052 33.9116883,43.5116883 28.7376623,44.6961039 L28.7376623,44.6961039 Z" id="Imported-Layers-5" fill="#A3A3A3" sketch:type="MSShapeGroup"></path>
    </g>
</svg>