<?xml version="1.0" encoding="UTF-8" standalone="no"?>
<svg width="40px" height="41px" viewBox="0 0 40 41" version="1.1" xmlns="http://www.w3.org/2000/svg" xmlns:xlink="http://www.w3.org/1999/xlink" xmlns:sketch="http://www.bohemiancoding.com/sketch/ns">
    <!-- Generator: Sketch 3.2.2 (9983) - http://www.bohemiancoding.com/sketch -->
    <title>Question</title>
    <desc>Created with Sketch.</desc>
    <defs></defs>
    <g id="Page-1" stroke="none" stroke-width="1" fill="none" fill-rule="evenodd" sketch:type="MSPage">
        <g id="INN-Homepage-3" sketch:type="MSArtboardGroup" transform="translate(-1133.000000, -4895.000000)" fill="#AAAAAA">
            <g id="Question" sketch:type="MSLayerGroup" transform="translate(1133.000000, 4895.000000)">
                <path d="M19.9930556,40.6545291 C9.03739583,40.6545291 0.123819444,31.6345663 0.123819444,20.5496068 C0.123819444,9.46345977 9.03739583,0.4458719 19.9930556,0.4458719 C30.9487153,0.4458719 39.8622917,9.46345977 39.8622917,20.5496068 C39.8622917,31.6345663 30.9487153,40.6545291 19.9930556,40.6545291 M19.9930556,2.65455157 C10.2403472,2.65455157 2.30673611,10.681796 2.30673611,20.5496068 C2.30673611,30.4174176 10.2403472,38.444662 19.9930556,38.444662 C29.7457639,38.444662 37.679375,30.4174176 37.679375,20.5496068 C37.679375,10.681796 29.7457639,2.65455157 19.9930556,2.65455157" id="Fill-95" sketch:type="MSShapeGroup"></path>
                <path d="M13.8832361,14.1931217 C14.188375,13.2977752 14.6402153,12.5366119 15.2411042,11.9084444 C15.8408194,11.2802769 16.5684583,10.79223 17.4228472,10.4419286 C18.2772361,10.0916273 19.2536806,9.91707033 20.3521806,9.91707033 C21.2065694,9.91707033 22.004625,10.0453162 22.7475208,10.3029955 C23.4892431,10.5606748 24.1464653,10.9359129 24.7156667,11.4298972 C25.2848681,11.9238814 25.7331875,12.5211749 26.0582778,13.2205901 C26.3833681,13.9200054 26.5465,14.7239173 26.5465,15.6287635 C26.5465,16.7817892 26.2976944,17.7590706 25.7989097,18.5617951 C25.300125,19.3645195 24.6640278,20.1363699 23.8917917,20.8773463 C23.2615625,21.5138261 22.7569097,22.0149351 22.3813542,22.3747362 C22.004625,22.7357247 21.7253056,23.0907759 21.5422222,23.4398897 C21.3591389,23.7890036 21.2370833,24.2176775 21.1760556,24.7211614 C21.1150278,25.2258329 21.0739514,25.5405104 21.054,26.4869177 L19.131625,26.4869177 C19.1116736,25.5405104 19.1621389,25.159335 19.2841944,24.5204803 C19.40625,23.8828131 19.6045903,23.3057065 19.8792153,22.7915354 C20.1538403,22.2773643 20.5200069,21.78338 20.9777153,21.3095826 C21.4354236,20.8357852 21.9893681,20.3014272 22.6407222,19.7041337 C23.2099236,19.1697757 23.6828889,18.5724822 24.0596181,17.9134407 C24.4363472,17.2555867 24.624125,16.52411 24.624125,15.7213855 C24.624125,15.1039052 24.5067639,14.5386732 24.2732153,14.0233146 C24.0396667,13.5091435 23.7239653,13.0709699 23.3272847,12.7111689 C22.9306042,12.3513678 22.4670278,12.0675644 21.9389028,11.8621334 C21.4096042,11.6567024 20.8497917,11.5533932 20.2606389,11.5533932 C19.4473264,11.5533932 18.7243819,11.6982636 18.0941528,11.9856295 C17.4639236,12.2741828 16.9440139,12.6696077 16.5379444,13.1742791 C16.1307014,13.6789505 15.8255625,14.2703067 15.6225278,14.9495351 C15.4194931,15.6287635 15.3267778,16.1844958 15.3479028,16.9872202 L13.4255278,16.9872202 C13.4255278,15.8959425 13.5780972,15.0884682 13.8832361,14.1931217 L13.8832361,14.1931217 Z M18.8264861,28.8618421 L21.1666667,28.8618421 L21.1666667,31.2367665 L18.8264861,31.2367665 L18.8264861,28.8618421 Z" id="Fill-48" sketch:type="MSShapeGroup"></path>
            </g>
        </g>
    </g>
</svg>