<?xml version="1.0" encoding="UTF-8" standalone="no"?>
<svg width="39px" height="39px" viewBox="0 0 39 39" version="1.1" xmlns="http://www.w3.org/2000/svg" xmlns:xlink="http://www.w3.org/1999/xlink" xmlns:sketch="http://www.bohemiancoding.com/sketch/ns">
    <!-- Generator: Sketch 3.2.2 (9983) - http://www.bohemiancoding.com/sketch -->
    <title>Imported Layers</title>
    <desc>Created with Sketch.</desc>
    <defs></defs>
    <g id="Page-1" stroke="none" stroke-width="1" fill="none" fill-rule="evenodd" sketch:type="MSPage">
        <g id="INN-Homepage" sketch:type="MSArtboardGroup" transform="translate(-255.000000, -1085.000000)" fill="#AAAAAA">
            <path d="M274.487179,1085 L293.974359,1094.74359 L293.974359,1114.23077 L274.487179,1123.97436 L255,1114.23077 L255,1094.74359 L274.487179,1085 L274.487179,1085 Z M258.248205,1096.36821 L258.248205,1112.60615 L261.49641,1114.23077 L272.86359,1119.91385 L272.86359,1103.6759 L258.248205,1096.36821 L258.248205,1096.36821 Z M287.477949,1114.23077 L290.727179,1112.60615 L290.727179,1096.36821 L276.111795,1103.6759 L276.111795,1119.91385 L287.477949,1114.23077 L287.477949,1114.23077 Z M274.487179,1088.24821 L261.49641,1094.74359 L274.487179,1101.24 L287.477949,1094.74359 L274.487179,1088.24821 L274.487179,1088.24821 Z" id="Imported-Layers" sketch:type="MSShapeGroup"></path>
        </g>
    </g>
</svg>