<?xml version="1.0" encoding="UTF-8" standalone="no"?>
<svg width="40px" height="40px" viewBox="0 0 40 40" version="1.1" xmlns="http://www.w3.org/2000/svg" xmlns:xlink="http://www.w3.org/1999/xlink" xmlns:sketch="http://www.bohemiancoding.com/sketch/ns">
    <!-- Generator: Sketch 3.2.2 (9983) - http://www.bohemiancoding.com/sketch -->
    <title>Exclamation</title>
    <desc>Created with Sketch.</desc>
    <defs></defs>
    <g id="Page-1" stroke="none" stroke-width="1" fill="none" fill-rule="evenodd" sketch:type="MSPage">
        <g id="INN-Homepage" sketch:type="MSArtboardGroup" transform="translate(-1089.000000, -1085.000000)" fill="#AAAAAA">
            <g id="Exclamation" sketch:type="MSLayerGroup" transform="translate(1089.000000, 1085.000000)">
                <path d="M20.0069444,39.6629552 C9.05128472,39.6629552 0.137708333,30.8629915 0.137708333,20.0483969 C0.137708333,9.23264368 9.05128472,0.434996975 20.0069444,0.434996975 C30.9626042,0.434996975 39.8761806,9.23264368 39.8761806,20.0483969 C39.8761806,30.8629915 30.9626042,39.6629552 20.0069444,39.6629552 M20.0069444,2.58980641 C10.2542361,2.58980641 2.320625,10.4212644 2.320625,20.0483969 C2.320625,29.6755293 10.2542361,37.5069873 20.0069444,37.5069873 C29.7596528,37.5069873 37.6932639,29.6755293 37.6932639,20.0483969 C37.6932639,10.4212644 29.7596528,2.58980641 20.0069444,2.58980641" id="Fill-49" sketch:type="MSShapeGroup"></path>
                <path d="M18.840375,28.1578947 L21.1805556,28.1578947 L21.1805556,30.4748941 L18.840375,30.4748941 L18.840375,28.1578947 Z" id="Fill-50" sketch:type="MSShapeGroup"></path>
                <path d="M20.7111111,25.8408953 L19.3027778,25.8408953 L18.8333333,16.5728978 L18.8333333,9.62189958 L21.1805556,9.62189958 L21.1805556,16.5728978 L20.7111111,25.8408953" id="Fill-51" sketch:type="MSShapeGroup"></path>
            </g>
        </g>
    </g>
</svg>