<svg xmlns="http://www.w3.org/2000/svg" xmlns:xlink="http://www.w3.org/1999/xlink" xmlns:sketch="http://www.bohemiancoding.com/sketch/ns" width="41px" height="40px" viewBox="0 0 41 40" version="1.1"><!-- Generator: Sketch 3.2.2 (9983) - http://www.bohemiancoding.com/sketch --><title>Person</title><desc>Created with Sketch.</desc><defs/><g stroke="none" stroke-width="1" fill="none" fill-rule="evenodd" sketch:type="MSPage"><g sketch:type="MSArtboardGroup" transform="translate(-684.000000, -1085.000000)" fill="#AAAAAA"><g sketch:type="MSLayerGroup"><path d="M704.4 1124.7 C693.4 1124.7 684.5 1115.9 684.5 1105 C684.5 1094.2 693.4 1085.4 704.4 1085.4 C715.3 1085.4 724.3 1094.2 724.3 1105 C724.2 1115.9 715.3 1124.7 704.4 1124.7 M704.4 1087.6 C694.6 1087.6 686.7 1095.4 686.7 1105 C686.7 1114.7 694.6 1122.5 704.4 1122.5 C714.1 1122.5 722.1 1114.7 722.1 1105 C722.1 1095.4 714.1 1087.6 704.4 1087.6 " sketch:type="MSShapeGroup"/><path d="M692.8 1119.2 L690.8 1118.4 C691.4 1117 693.2 1116.2 695.3 1115.3 C697.3 1114.4 699.8 1113.3 699.8 1112 L699.8 1110.2 C699.1 1109.6 697.9 1108.4 697.7 1106.5 C697.1 1105.9 696.2 1104.8 696.2 1103.5 C696.1 1102.7 696.5 1102 696.8 1101.6 C696.6 1100.7 696.3 1098.9 696.3 1097.5 C696.2 1093 699.5 1090.1 704.4 1090.1 C705.8 1090.1 707.5 1090.4 708.5 1091.5 C710.7 1091.8 712.5 1094.5 712.5 1097.5 C712.5 1099.5 712.2 1101.1 712 1101.9 C712.2 1102.3 712.5 1102.9 712.5 1103.5 C712.4 1105 711.7 1106 711 1106.6 C710.7 1108.4 709.7 1109.6 709 1110.2 L709 1112 C709 1113.1 711.1 1113.9 713 1114.6 C715.3 1115.4 717.6 1116.3 718.3 1118.1 L716.3 1118.9 C715.9 1117.9 714 1117.2 712.3 1116.6 C709.7 1115.7 706.8 1114.6 706.8 1112 L706.8 1109.1 L707.3 1108.8 C707.4 1108.7 708.8 1107.8 708.8 1105.9 L708.8 1105.2 L709.5 1104.9 C709.6 1104.9 710.3 1104.5 710.3 1103.5 C710.3 1103.2 710 1102.9 710 1102.8 L709.5 1102.3 L709.7 1101.7 C709.7 1101.7 710.3 1099.9 710.3 1097.5 C710.3 1095.5 709.2 1093.6 707.9 1093.6 L707.3 1093.6 L707 1093 C706.7 1092.6 705.8 1092.2 704.4 1092.2 C700.6 1092.2 698.4 1094.2 698.4 1097.5 C698.4 1099.1 699 1101.6 699 1101.6 L699.1 1102.2 L698.7 1102.6 C698.7 1102.6 698.3 1103 698.3 1103.5 C698.3 1104.1 699.1 1104.8 699.4 1105.1 L699.8 1105.4 L699.8 1106 C699.8 1107.7 701.4 1108.7 701.5 1108.8 L701.9 1109.1 L701.9 1112 C701.9 1114.7 698.9 1116.1 696.2 1117.3 C694.8 1117.8 693.1 1118.6 692.8 1119.2 " sketch:type="MSShapeGroup"/></g></g></g></svg>