<?xml version="1.0" encoding="UTF-8" standalone="no"?>
<svg width="60px" height="60px" viewBox="0 0 60 60" version="1.1" xmlns="http://www.w3.org/2000/svg" xmlns:xlink="http://www.w3.org/1999/xlink" xmlns:sketch="http://www.bohemiancoding.com/sketch/ns">
    <!-- Generator: Sketch 3.2.2 (9983) - http://www.bohemiancoding.com/sketch -->
    <title>link</title>
    <desc>Created with Sketch.</desc>
    <defs></defs>
    <g id="Page-1" stroke="none" stroke-width="1" fill="none" fill-rule="evenodd" sketch:type="MSPage">
        <g id="For-Funders" sketch:type="MSArtboardGroup" transform="translate(-236.000000, -3276.000000)" fill="#1EBDEA">
            <g id="link" sketch:type="MSLayerGroup" transform="translate(236.000000, 3276.000000)">
                <path d="M10.3288246,39.4574009 C4.97072062,39.4574009 0.613689366,35.0951827 0.613689366,29.7375193 C0.613689366,24.3798559 4.97072062,20.0196089 10.3288246,20.0196089 C15.6869286,20.0196089 20.0439599,24.3798559 20.0439599,29.7375193 C20.0439599,35.0951827 15.6869286,39.4574009 10.3288246,39.4574009 M10.3288246,23.6879722 C6.99454291,23.6879722 4.27903451,26.4022851 4.27903451,29.7375193 C4.27903451,33.0747247 6.99454291,35.7890376 10.3288246,35.7890376 C13.6631063,35.7890376 16.3786147,33.0747247 16.3786147,29.7375193 C16.3786147,26.4022851 13.6631063,23.6879722 10.3288246,23.6879722" id="Fill-61" sketch:type="MSShapeGroup"></path>
                <path d="M49.7411381,19.745615 C44.383034,19.745615 40.0260028,15.3833968 40.0260028,10.0257334 C40.0260028,4.66806999 44.383034,0.307822954 49.7411381,0.307822954 C55.0992421,0.307822954 59.4562733,4.66806999 59.4562733,10.0257334 C59.4562733,15.3833968 55.0992421,19.745615 49.7411381,19.745615 M49.7411381,3.97618631 C46.4068563,3.97618631 43.6913479,6.69049923 43.6913479,10.0257334 C43.6913479,13.3629388 46.4068563,16.0772517 49.7411381,16.0772517 C53.0754198,16.0772517 55.7909282,13.3629388 55.7909282,10.0257334 C55.7909282,6.69049923 53.0754198,3.97618631 49.7411381,3.97618631" id="Fill-62" sketch:type="MSShapeGroup"></path>
                <path d="M49.7411381,59.1691868 C44.383034,59.1691868 40.0260028,54.8069686 40.0260028,49.4493052 C40.0260028,44.0916418 44.383034,39.7313948 49.7411381,39.7313948 C55.0992421,39.7313948 59.4562733,44.0916418 59.4562733,49.4493052 C59.4562733,54.8069686 55.0992421,59.1691868 49.7411381,59.1691868 M49.7411381,43.3997581 C46.4068563,43.3997581 43.6913479,46.114071 43.6913479,49.4493052 C43.6913479,52.7865106 46.4068563,55.5008235 49.7411381,55.5008235 C53.0754198,55.5008235 55.7909282,52.7865106 55.7909282,49.4493052 C55.7909282,46.114071 53.0754198,43.3997581 49.7411381,43.3997581" id="Fill-63" sketch:type="MSShapeGroup"></path>
                <path d="M41.8369986,47.7008698 L16.4692631,35.0123932 L18.2329641,31.4859547 L43.6026702,44.1744313 L41.8369986,47.7008698" id="Fill-64" sketch:type="MSShapeGroup"></path>
                <path d="M18.2329641,27.9890839 L16.4672924,24.4626454 L41.8369986,11.7741688 L43.6006996,15.3006073 L18.2329641,27.9890839" id="Fill-65" sketch:type="MSShapeGroup"></path>
            </g>
        </g>
    </g>
</svg>